<svg width="2184" height="744" viewBox="0 0 2184 744" fill="none" xmlns="http://www.w3.org/2000/svg">
<g clip-path="url(#clip0_517_7)">
<path d="M71.9401 432.84C71.4935 428.973 71.2568 425.087 71.2301 421.18C70.9901 392.65 70.6101 364.15 71.7401 335.62C71.7901 334.47 72.6901 334.03 72.7601 333.03C78.0401 252.76 99.5801 175.52 178.94 138.9C224.93 117.68 278.77 111.3 328.81 109.1C358.743 107.787 391.893 107.717 428.26 108.89C434.773 109.103 441.423 109.53 448.21 110.17C505.74 115.6 569.08 123.58 615.81 162.7C656.4 196.69 672.56 248.88 679.03 299.75C683.49 334.79 684.35 370.28 683.39 405.56C682.16 450.89 675.04 498.13 655.65 539.49C616.64 622.67 532.43 648.11 447.81 655.3C397.03 659.61 346.6 659.49 295.82 655.13C246.83 650.93 192 641.7 150.67 613C102.02 579.21 83.2201 525.34 76.2001 468.47C74.7335 456.603 73.3135 444.727 71.9401 432.84ZM299.99 313C299.99 309.884 298.752 306.895 296.549 304.692C294.345 302.488 291.356 301.25 288.24 301.25H260.04C256.924 301.25 253.935 302.488 251.732 304.692C249.528 306.895 248.29 309.884 248.29 313V451.98C248.29 455.096 249.528 458.085 251.732 460.289C253.935 462.492 256.924 463.73 260.04 463.73H288.24C291.356 463.73 294.345 462.492 296.549 460.289C298.752 458.085 299.99 455.096 299.99 451.98V313ZM440.13 312.77C440.13 309.725 438.921 306.805 436.768 304.652C434.615 302.5 431.695 301.29 428.65 301.29H400.01C396.965 301.29 394.046 302.5 391.893 304.652C389.74 306.805 388.53 309.725 388.53 312.77V398.01C388.53 401.055 389.74 403.975 391.893 406.128C394.046 408.281 396.965 409.49 400.01 409.49H428.65C431.695 409.49 434.615 408.281 436.768 406.128C438.921 403.975 440.13 401.055 440.13 398.01V312.77ZM510.24 312.83C510.24 309.759 509.02 306.813 506.848 304.642C504.677 302.47 501.731 301.25 498.66 301.25H470.32C467.249 301.25 464.304 302.47 462.132 304.642C459.96 306.813 458.74 309.759 458.74 312.83V452.15C458.74 455.221 459.96 458.167 462.132 460.338C464.304 462.51 467.249 463.73 470.32 463.73H498.66C501.731 463.73 504.677 462.51 506.848 460.338C509.02 458.167 510.24 455.221 510.24 452.15V312.83ZM226.213 366.925C226.21 365.415 225.91 363.92 225.33 362.526C224.75 361.131 223.9 359.865 222.831 358.799C221.761 357.733 220.492 356.888 219.095 356.313C217.699 355.737 216.203 355.442 214.693 355.445L185.973 355.495C184.463 355.498 182.968 355.798 181.574 356.378C180.179 356.959 178.913 357.808 177.847 358.878C176.781 359.947 175.936 361.217 175.361 362.613C174.785 364.009 174.491 365.505 174.493 367.015L174.547 398.035C174.55 399.545 174.85 401.04 175.43 402.434C176.011 403.829 176.86 405.095 177.93 406.161C178.999 407.227 180.269 408.072 181.665 408.647C183.061 409.223 184.557 409.518 186.067 409.515L214.787 409.465C216.297 409.462 217.792 409.162 219.187 408.582C220.581 408.001 221.847 407.152 222.913 406.082C223.979 405.013 224.824 403.743 225.399 402.347C225.975 400.951 226.27 399.455 226.267 397.945L226.213 366.925ZM370.075 366.885C370.077 365.392 369.786 363.913 369.217 362.532C368.648 361.152 367.813 359.897 366.759 358.839C365.705 357.782 364.453 356.942 363.074 356.368C361.696 355.794 360.218 355.498 358.725 355.495L329.965 355.445C326.949 355.44 324.055 356.633 321.919 358.761C319.783 360.89 318.58 363.78 318.575 366.795L318.426 452.295C318.423 453.788 318.714 455.267 319.283 456.648C319.852 458.028 320.688 459.283 321.742 460.341C322.796 461.398 324.048 462.238 325.426 462.812C326.805 463.386 328.283 463.682 329.776 463.685L358.536 463.735C361.551 463.74 364.445 462.547 366.581 460.419C368.717 458.29 369.92 455.4 369.925 452.385L370.075 366.885ZM580.195 366.6C580.19 365.13 579.895 363.674 579.327 362.317C578.76 360.96 577.931 359.729 576.887 358.692C575.843 357.656 574.606 356.835 573.245 356.277C571.884 355.719 570.427 355.434 568.956 355.439L539.896 355.541C536.926 355.551 534.081 356.741 531.988 358.849C529.895 360.957 528.725 363.81 528.735 366.78L528.845 398.38C528.851 399.851 529.145 401.306 529.713 402.663C530.281 404.02 531.11 405.251 532.153 406.288C533.197 407.324 534.435 408.145 535.795 408.703C537.156 409.261 538.614 409.546 540.084 409.541L569.144 409.439C572.115 409.429 574.959 408.239 577.052 406.131C579.145 404.023 580.316 401.171 580.305 398.2L580.195 366.6Z" fill="#FF7028"/>
<path d="M1491.45 319.63C1515.87 302.83 1546.25 296.59 1575.51 299.98C1646.16 308.16 1689.14 370.38 1680.38 439.63C1668.07 537.06 1555.53 576.86 1481.03 516.93C1480.76 516.723 1480.54 516.76 1480.36 517.04L1466.25 538.77C1465.98 539.197 1465.59 539.541 1465.14 539.768C1464.68 539.995 1464.18 540.096 1463.67 540.06C1453.29 539.31 1443.45 540.4 1433.32 539.87C1432.94 539.85 1432.75 539.65 1432.75 539.27V221.5C1432.75 221.367 1432.8 221.24 1432.9 221.146C1432.99 221.053 1433.12 221 1433.25 221H1490.25C1490.38 221 1490.51 221.053 1490.6 221.146C1490.7 221.24 1490.75 221.367 1490.75 221.5V319.26C1490.75 319.341 1490.77 319.421 1490.82 319.49C1490.86 319.559 1490.92 319.616 1490.99 319.654C1491.06 319.692 1491.14 319.709 1491.22 319.705C1491.3 319.701 1491.38 319.675 1491.45 319.63ZM1495.66 437.82C1500.51 475.24 1526.71 499.44 1565.38 496.22C1616.23 491.98 1629.87 440.78 1620.88 398.58C1613.03 361.74 1582.75 343.08 1545.67 349.38C1502.73 356.69 1490.81 400.39 1495.66 437.82Z" fill="#FF7028"/>
<path d="M2039.03 348C2038.22 348 2037.81 348.407 2037.81 349.22C2037.73 383.48 2037.73 416.823 2037.8 449.25C2037.83 461.9 2041.19 472.51 2050.65 480.88C2061.21 490.22 2072.2 490.21 2086.33 489.7C2086.76 489.687 2086.98 489.893 2086.98 490.32L2087.01 539.73C2087.01 540.097 2086.83 540.28 2086.46 540.28C2080.15 540.247 2073.92 540.213 2067.77 540.18C2022.18 539.97 1986.74 506.52 1980.67 462.13C1980.06 457.737 1979.76 451.087 1979.76 442.18C1979.75 410.947 1979.74 379.643 1979.75 348.27C1979.75 348.19 1979.72 348.114 1979.66 348.058C1979.61 348.002 1979.53 347.97 1979.45 347.97L1945.12 348.02C1944.69 348.02 1944.48 347.803 1944.48 347.37L1944.49 304.96C1944.49 304.64 1944.65 304.48 1944.97 304.48L1978.99 304.51C1979.5 304.51 1979.75 304.257 1979.75 303.75V221.75C1979.75 221.617 1979.8 221.49 1979.9 221.396C1979.99 221.303 1980.12 221.25 1980.25 221.25H2037.24C2037.57 221.25 2037.74 221.413 2037.74 221.74L2037.78 303.92C2037.78 304.092 2037.85 304.258 2037.97 304.38C2038.09 304.502 2038.25 304.57 2038.42 304.57L2086.33 304.19C2086.76 304.19 2086.97 304.403 2086.97 304.83L2086.99 347.38C2086.99 347.793 2086.78 348 2086.37 348H2039.03Z" fill="#FF7028"/>
<path d="M1246.81 445.9C1246.72 445.896 1246.64 445.912 1246.56 445.948C1246.48 445.983 1246.41 446.036 1246.35 446.103C1246.3 446.17 1246.26 446.249 1246.24 446.333C1246.22 446.418 1246.22 446.506 1246.24 446.59C1251.95 470.44 1268.56 489.89 1293.07 495.15C1310.2 498.83 1330.79 496.97 1346.19 488.67C1352.04 485.517 1358.43 481.137 1365.37 475.53C1365.64 475.317 1365.88 475.34 1366.1 475.6L1396.67 511.58C1397.1 512.087 1397.05 512.544 1396.52 512.95C1366.9 535.904 1333.64 546.64 1296.73 545.16C1224.25 542.27 1180.31 482.28 1185.6 412.26C1189.66 358.58 1226.34 313.42 1279.42 301.87C1298.63 297.69 1317.66 298.41 1336.49 304.03C1397.35 322.18 1420.69 387.59 1412.75 445.45C1412.7 445.777 1412.51 445.94 1412.18 445.94C1361.71 446.187 1311.23 446.26 1260.75 446.16C1256.06 446.153 1251.41 446.067 1246.81 445.9ZM1245.23 403.73L1358.68 403.8C1359.07 403.8 1359.24 403.61 1359.2 403.23C1356.77 377.62 1343.76 354.38 1316.65 349.46C1277.96 342.43 1250.45 365.63 1244.76 403.19C1244.71 403.55 1244.86 403.73 1245.23 403.73Z" fill="#FF7028"/>
<path d="M1782.44 539.34C1743.08 527.03 1712.7 494.51 1703.1 454.42C1693.21 413.06 1702.43 367.73 1732.37 336.26C1773.88 292.65 1844.76 287.62 1893.67 321.33C1933.22 348.59 1949.93 397.03 1942.65 443.44C1930.65 519.79 1854.94 562.02 1782.44 539.34ZM1760.58 395.8C1751.85 431.35 1759.6 481.79 1801.59 493.63C1813.89 497.097 1826.27 497.357 1838.73 494.41C1881.27 484.35 1891.21 437.83 1884.13 400.83C1879.35 375.81 1864.11 355.87 1838.45 350.17C1802.6 342.2 1769.71 358.62 1760.58 395.8Z" fill="#FF7028"/>
<path d="M895.78 476.73C914.77 508.3 959.99 499.93 968.87 465.02C969.783 461.413 970.24 456.153 970.24 449.24C970.253 401.16 970.256 353.167 970.25 305.26C970.25 305.058 970.33 304.865 970.472 304.723C970.615 304.58 970.808 304.5 971.01 304.5H1027.74C1028.09 304.5 1028.26 304.673 1028.26 305.02C1028.23 350.52 1028.24 396.007 1028.28 441.48C1028.29 452.053 1028.53 458.71 1028.99 461.45C1031.56 476.85 1043.01 490.78 1058.36 495C1080.36 501.04 1101.94 487.21 1107.76 465.65C1108.74 462.01 1109.23 456.157 1109.24 448.09C1109.25 400.37 1109.26 352.687 1109.25 305.04C1109.25 304.97 1109.26 304.9 1109.29 304.834C1109.31 304.769 1109.35 304.709 1109.4 304.659C1109.45 304.608 1109.51 304.569 1109.57 304.541C1109.64 304.514 1109.71 304.5 1109.78 304.5H1166.27C1167.08 304.5 1167.48 304.903 1167.48 305.71C1167.53 342.05 1167.76 374.88 1167.37 414.72C1167.23 428.83 1167.92 445.06 1166.49 457.45C1160.74 507.2 1124.6 543.23 1073.74 545.25C1048.09 546.27 1024.65 538.01 1005.39 520.85C1003.47 519.137 1001.55 517.41 999.64 515.67C999.533 515.571 999.391 515.518 999.246 515.522C999.1 515.526 998.962 515.586 998.86 515.69C971 544.42 931.25 552.31 893.75 539.23C858.6 526.98 836.57 493.92 832.31 457.66C831.816 453.5 831.563 446.843 831.55 437.69C831.47 393.463 831.463 349.23 831.53 304.99C831.53 304.663 831.693 304.5 832.02 304.5H888.25C889.083 304.5 889.5 304.92 889.5 305.76C889.506 355.02 889.486 404.1 889.44 453C889.433 461.78 891.547 469.69 895.78 476.73Z" fill="#FF7028"/>
</g>
<defs>
<clipPath id="clip0_517_7">
<rect width="2184" height="744" fill="white"/>
</clipPath>
</defs>
</svg>
